name rise44.9368peak50.754fall52.0217.mot
datacolumns 19
datarows 26
range 11.24496900000000 11.28662900000000
endheader
time	ground_force1_vx	ground_force1_vy	ground_force1_vz	ground_force1_px	ground_force1_py	ground_force1_pz	ground_force2_vx	ground_force2_vy	ground_force2_vz	ground_force2_px	ground_force2_py	ground_force2_pz	ground_torque1_x	ground_torque1_y	ground_torque1_z	ground_torque2_x	ground_torque2_y	ground_torque2_z	
11.24496900000000	-7.06680700000000	41.91805500000000	-7.95850700000000	0.34211000000000	0.00000000000000	0.10656700000000	-40.31259400000000	804.33214399999997	-62.82939000000000	0.18458500000000	0.00000000000000	-0.10185900000000	0.00000000000000	-5.51175800000000	0.00000000000000	0.00000000000000	-30.51116000000000	0.00000000000000	
11.24663500000000	-7.88747200000000	48.94094500000000	-8.92897600000000	0.34722400000000	0.00000000000000	0.10698600000000	-40.86038900000000	802.10917800000004	-62.50439100000000	0.18357000000000	0.00000000000000	-0.10182000000000	0.00000000000000	-6.23007500000000	0.00000000000000	0.00000000000000	-30.35732900000000	0.00000000000000	
11.24829200000000	-8.60930000000000	56.00266800000000	-9.80306000000000	0.35192800000000	0.00000000000000	0.10737200000000	-41.41054400000000	799.76152400000001	-62.15821600000000	0.18256400000000	0.00000000000000	-0.10177700000000	0.00000000000000	-6.88870300000000	0.00000000000000	0.00000000000000	-30.19907800000000	0.00000000000000	
11.24997000000000	-9.21241000000000	63.00846600000000	-10.55949200000000	0.35627800000000	0.00000000000000	0.10773100000000	-41.96306800000000	797.28765899999996	-61.79093500000000	0.18156800000000	0.00000000000000	-0.10173000000000	0.00000000000000	-7.47153900000000	0.00000000000000	0.00000000000000	-30.03657400000000	0.00000000000000	
11.25162500000000	-9.68360300000000	69.88799500000000	-11.18423600000000	0.36032200000000	0.00000000000000	0.10806500000000	-42.51793700000000	794.68604800000003	-61.40263600000000	0.18058200000000	0.00000000000000	-0.10167900000000	0.00000000000000	-7.96756200000000	0.00000000000000	0.00000000000000	-29.86997900000000	0.00000000000000	
11.25329400000000	-10.01641500000000	76.59734000000000	-11.67057600000000	0.36409800000000	0.00000000000000	0.10837800000000	-43.07509200000000	791.95514300000002	-60.99343200000000	0.17960600000000	0.00000000000000	-0.10162300000000	0.00000000000000	-8.37100000000000	0.00000000000000	0.00000000000000	-29.69945300000000	0.00000000000000	
11.25497300000000	-10.21062700000000	83.11850600000000	-12.01857300000000	0.36763800000000	0.00000000000000	0.10867300000000	-43.63443800000000	789.09339199999999	-60.56345300000000	0.17864200000000	0.00000000000000	-0.10156400000000	0.00000000000000	-8.68102700000000	0.00000000000000	0.00000000000000	-29.52515000000000	0.00000000000000	
11.25663300000000	-10.27134000000000	89.45687100000001	-12.23407700000000	0.37096900000000	0.00000000000000	0.10895100000000	-44.19584100000000	786.09924100000001	-60.11285200000000	0.17768800000000	0.00000000000000	-0.10150000000000	0.00000000000000	-8.90111400000000	0.00000000000000	0.00000000000000	-29.34722000000000	0.00000000000000	
11.25829200000000	-10.20779100000000	95.63715400000000	-12.32742300000000	0.37411500000000	0.00000000000000	0.10921600000000	-44.75912900000000	782.97113800000000	-59.64180400000000	0.17674600000000	0.00000000000000	-0.10143200000000	0.00000000000000	-9.03812800000000	0.00000000000000	0.00000000000000	-29.16580700000000	0.00000000000000	
11.25997200000000	-10.03202600000000	101.69848500000001	-12.31199300000000	0.37709400000000	0.00000000000000	0.10946700000000	-45.32408400000000	779.70754199999999	-59.15050200000000	0.17581500000000	0.00000000000000	-0.10136000000000	0.00000000000000	-9.10130500000000	0.00000000000000	0.00000000000000	-28.98104700000000	0.00000000000000	
11.26163100000000	-9.75758700000000	107.68915600000000	-12.20277600000000	0.37992400000000	0.00000000000000	0.10970700000000	-45.89044500000000	776.30692499999998	-58.63916500000000	0.17489600000000	0.00000000000000	-0.10128300000000	0.00000000000000	-9.10121300000000	0.00000000000000	0.00000000000000	-28.79307200000000	0.00000000000000	
11.26329900000000	-9.39831200000000	113.66152099999999	-12.01505300000000	0.38261900000000	0.00000000000000	0.10993700000000	-46.45790800000000	772.76778300000001	-58.10802900000000	0.17398900000000	0.00000000000000	-0.10120100000000	0.00000000000000	-9.04877100000000	0.00000000000000	0.00000000000000	-28.60200600000000	0.00000000000000	
11.26496700000000	-8.96731100000000	119.66744000000000	-11.76327800000000	0.38519200000000	0.00000000000000	0.11015700000000	-47.02611700000000	769.08863899999994	-57.55735500000000	0.17309500000000	0.00000000000000	-0.10111500000000	0.00000000000000	-8.95441300000000	0.00000000000000	0.00000000000000	-28.40796300000000	0.00000000000000	
11.26663000000000	-8.47618700000000	125.75451500000000	-11.46021800000000	0.38765300000000	0.00000000000000	0.11036800000000	-47.59467100000000	765.26805100000001	-56.98742200000000	0.17221400000000	0.00000000000000	-0.10102400000000	0.00000000000000	-8.82743100000000	0.00000000000000	0.00000000000000	-28.21105000000000	0.00000000000000	
11.26829700000000	-7.93451100000000	131.96328500000001	-11.11637500000000	0.39001100000000	0.00000000000000	0.11057100000000	-48.16311600000000	761.30462100000000	-56.39853400000000	0.17134500000000	0.00000000000000	-0.10092900000000	0.00000000000000	-8.67552000000000	0.00000000000000	0.00000000000000	-28.01136700000000	0.00000000000000	
11.26997300000000	-7.34954100000000	138.32541699999999	-10.73967600000000	0.39227500000000	0.00000000000000	0.11076600000000	-48.73094900000000	757.19699800000001	-55.79101500000000	0.17049000000000	0.00000000000000	-0.10082800000000	0.00000000000000	-8.50451500000000	0.00000000000000	0.00000000000000	-27.80900100000000	0.00000000000000	
11.27162800000000	-6.72617900000000	144.86285500000000	-10.33541700000000	0.39445100000000	0.00000000000000	0.11095400000000	-49.29761400000000	752.94388800000002	-55.16521000000000	0.16964900000000	0.00000000000000	-0.10072300000000	0.00000000000000	-8.31832800000000	0.00000000000000	0.00000000000000	-27.60403400000000	0.00000000000000	
11.27329200000000	-6.06710500000000	151.58780800000000	-9.90640900000000	0.39654700000000	0.00000000000000	0.11113600000000	-49.86250100000000	748.54406300000005	-54.52148900000000	0.16882200000000	0.00000000000000	-0.10061300000000	0.00000000000000	-8.11902800000000	0.00000000000000	0.00000000000000	-27.39653400000000	0.00000000000000	
11.27497500000000	-5.37306400000000	158.50343799999999	-9.45328900000000	0.39856700000000	0.00000000000000	0.11131100000000	-50.42494900000000	743.99636599999997	-53.86024000000000	0.16800800000000	0.00000000000000	-0.10049800000000	0.00000000000000	-7.90705600000000	0.00000000000000	0.00000000000000	-27.18656100000000	0.00000000000000	
11.27662400000000	-4.64324900000000	165.60506500000000	-8.97493700000000	0.40051600000000	0.00000000000000	0.11148000000000	-50.98424000000000	739.29971999999998	-53.18187700000000	0.16720900000000	0.00000000000000	-0.10037800000000	0.00000000000000	-7.68151800000000	0.00000000000000	0.00000000000000	-26.97416500000000	0.00000000000000	
11.27829500000000	-3.87573100000000	172.88168600000000	-8.46894200000000	0.40239800000000	0.00000000000000	0.11164300000000	-51.53960600000000	734.45313299999998	-52.48683200000000	0.16642400000000	0.00000000000000	-0.10025300000000	0.00000000000000	-7.44052600000000	0.00000000000000	0.00000000000000	-26.75938600000000	0.00000000000000	
11.27996800000000	-3.06790300000000	180.31766500000001	-7.93209100000000	0.40421600000000	0.00000000000000	0.11180100000000	-52.09022300000000	729.45570999999995	-51.77556100000000	0.16565400000000	0.00000000000000	-0.10012300000000	0.00000000000000	-7.18155500000000	0.00000000000000	0.00000000000000	-26.54225200000000	0.00000000000000	
11.28163000000000	-2.21689200000000	187.89441400000001	-7.36082300000000	0.40597400000000	0.00000000000000	0.11195400000000	-52.63521400000000	724.30666099999996	-51.04854100000000	0.16489900000000	0.00000000000000	-0.09998800000000	0.00000000000000	-6.90178500000000	0.00000000000000	0.00000000000000	-26.32278100000000	0.00000000000000	
11.28329000000000	-1.31992700000000	195.59195600000001	-6.75162600000000	0.40767500000000	0.00000000000000	0.11210100000000	-53.17365200000000	719.00530600000002	-50.30627100000000	0.16415900000000	0.00000000000000	-0.09984800000000	0.00000000000000	-6.59839700000000	0.00000000000000	0.00000000000000	-26.10098300000000	0.00000000000000	
11.28496800000000	-0.37463300000000	203.39026799999999	-6.10136900000000	0.40932000000000	0.00000000000000	0.11224400000000	-53.70455500000000	713.55108600000005	-49.54927100000000	0.16343400000000	0.00000000000000	-0.09970300000000	0.00000000000000	-6.26882700000000	0.00000000000000	0.00000000000000	-25.87685300000000	0.00000000000000	
11.28662900000000	0.62074900000000	211.27036600000000	-5.40754200000000	0.41091100000000	0.00000000000000	0.11238200000000	-54.22689600000000	707.94357200000002	-48.77808200000000	0.16272400000000	0.00000000000000	-0.09955200000000	0.00000000000000	-5.91095100000000	0.00000000000000	0.00000000000000	-25.65038100000000	0.00000000000000	
